<?xml version="1.0" encoding="utf-8"?>
<!-- Generator: Adobe Illustrator 26.0.1, SVG Export Plug-In . SVG Version: 6.00 Build 0)  -->
<svg version="1.1" id="Outline" xmlns="http://www.w3.org/2000/svg" xmlns:xlink="http://www.w3.org/1999/xlink" x="0px" y="0px"
	 viewBox="0 0 40 40" style="enable-background:new 0 0 40 40;" xml:space="preserve">
<style type="text/css">
	.st0{fill:#FFFFFF;}
	.st1{fill:none;}
</style>
<path class="st0" d="M35.9,4.7C35.9,4.7,35.9,4.6,35.9,4.7c-0.1-0.3-0.3-0.5-0.5-0.6c0,0-0.1,0-0.1,0c-0.1,0-0.2,0-0.2,0
	C35,4,35,4,35,4c-0.1,0-0.2,0-0.3,0.1l0,0l0,0l-30,12c-0.5,0.2-0.8,0.8-0.6,1.3c0.1,0.3,0.3,0.5,0.6,0.6l12.6,4.8l4.8,12.6
	c0.1,0.4,0.5,0.6,0.9,0.6h0c0.4,0,0.8-0.2,0.9-0.6l12-30C36,5.3,36,5.1,36,5c0,0,0-0.1,0-0.1C36,4.9,36,4.8,35.9,4.7z M30.8,7.7
	L17.8,20.8L7.7,17L30.8,7.7z M23,32.3l-3.9-10L32.3,9.2L23,32.3z"/>
<rect class="st1" width="40" height="40"/>
</svg>
